<?xml version="1.0" standalone="no"?>
<!DOCTYPE svg PUBLIC "-//W3C//DTD SVG 20010904//EN"
 "http://www.w3.org/TR/2001/REC-SVG-20010904/DTD/svg10.dtd">
<svg version="1.0" xmlns="http://www.w3.org/2000/svg"
 width="1100.000000pt" height="1100.000000pt" viewBox="0 0 1100.000000 1100.000000"
 preserveAspectRatio="xMidYMid meet">
<metadata>
Created by potrace 1.14, written by Peter Selinger 2001-2017
</metadata>
<g transform="translate(0.000000,1100.000000) scale(0.100000,-0.100000)"
fill="#000000" stroke="none">
<path d="M4195 10329 c-11 -11 -36 -31 -55 -43 -29 -18 -117 -127 -149 -185
-8 -13 -16 -12 -67 4 -33 11 -88 20 -124 20 -60 0 -65 -2 -68 -23 -3 -18 -9
-22 -32 -20 -61 5 -91 -35 -224 -300 -122 -241 -214 -405 -330 -586 -31 -50
-58 -91 -59 -93 -2 -1 -37 -9 -78 -18 -119 -24 -119 -24 -119 -44 0 -15 -10
-19 -52 -25 -29 -3 -79 -6 -111 -6 -39 0 -64 -5 -74 -15 -16 -17 -47 -12 -73
11 -33 28 -111 54 -183 60 l-75 7 -41 -41 c-44 -44 -50 -65 -25 -100 21 -30
31 -28 27 6 -4 34 7 52 38 58 13 2 39 7 57 10 17 3 53 3 78 -1 40 -6 44 -8 29
-19 -16 -11 -15 -16 11 -54 16 -23 39 -44 50 -48 24 -6 72 15 93 40 17 20 31
20 31 1 0 -29 41 -23 137 21 l76 35 22 -21 c24 -22 47 -25 77 -9 11 6 22 9 24
6 3 -2 -20 -52 -51 -110 -34 -65 -52 -108 -45 -112 18 -11 11 -25 -12 -25 -29
0 -183 -41 -306 -81 -80 -27 -92 -33 -87 -50 8 -25 -20 -35 -125 -45 -62 -5
-87 -11 -99 -25 -22 -27 -53 -23 -96 11 -46 36 -91 50 -168 50 -52 0 -61 -3
-92 -33 -54 -53 -65 -104 -31 -146 9 -11 12 -5 16 29 5 45 7 46 77 75 31 13
54 16 88 10 45 -6 46 -7 30 -25 -15 -17 -14 -21 18 -67 18 -26 43 -49 54 -51
12 -2 36 13 63 39 42 40 44 41 51 21 12 -32 35 -27 124 28 44 28 83 50 87 50
5 0 17 -9 28 -20 27 -27 44 -25 101 10 66 40 357 176 395 184 41 9 56 28 78
99 10 33 37 104 61 160 l43 100 93 28 c52 15 105 30 119 33 19 4 31 18 48 57
12 29 57 108 99 176 57 91 82 122 93 117 37 -14 216 -43 333 -54 70 -6 290
-17 490 -25 199 -8 382 -19 407 -26 25 -6 59 -24 75 -39 76 -70 121 -74 375
-30 292 50 425 94 481 156 125 139 126 88 2 -146 -36 -69 -92 -168 -123 -220
-58 -95 -130 -261 -130 -297 0 -10 4 -23 9 -28 6 -6 -61 -102 -174 -250 -101
-132 -184 -249 -185 -261 0 -11 5 -25 10 -30 7 -7 4 -19 -10 -37 -38 -48 -89
-171 -78 -185 8 -9 2 -31 -22 -83 -22 -47 -30 -78 -26 -94 4 -17 -2 -41 -19
-72 -29 -55 -30 -66 -11 -82 12 -10 11 -20 -5 -66 -24 -67 -24 -75 -1 -75 10
0 27 -7 38 -15 10 -8 22 -15 27 -15 13 0 7 45 -9 68 -20 28 -14 57 11 57 23 0
38 52 29 108 -4 29 -2 37 9 37 20 0 26 18 34 102 4 44 12 77 22 87 9 9 27 60
39 114 13 53 29 97 35 97 7 0 30 34 52 76 22 42 92 160 156 262 96 155 120
187 139 187 19 0 34 21 94 132 39 73 72 130 74 128 2 -1 -6 -21 -17 -44 -24
-46 -61 -196 -61 -246 0 -18 6 -35 13 -38 9 -3 8 -11 -4 -33 -134 -235 -283
-502 -290 -520 -7 -19 -4 -26 11 -34 19 -10 18 -11 -5 -58 -13 -26 -30 -74
-39 -106 -13 -51 -13 -61 -1 -70 12 -9 12 -21 -6 -79 -18 -59 -20 -72 -8 -93
11 -21 10 -30 -4 -59 -22 -47 -21 -70 3 -86 18 -12 19 -18 9 -52 -17 -63 -11
-72 49 -72 58 0 64 10 27 45 -31 29 -35 71 -5 63 18 -5 20 0 20 45 0 32 -5 54
-15 62 -14 12 -13 15 5 32 22 21 25 58 10 123 -6 26 -5 42 1 46 15 9 28 76 29
146 0 42 4 65 14 70 8 4 32 55 54 113 21 58 76 189 122 293 71 161 86 187 105
187 26 0 30 6 106 218 87 242 134 453 122 540 -7 43 9 42 75 -8 116 -88 216
-133 404 -180 46 -12 94 -29 108 -38 14 -9 34 -19 45 -22 26 -6 143 -239 181
-360 33 -102 64 -168 93 -194 12 -11 21 -26 21 -34 0 -25 76 -175 104 -206 15
-15 33 -26 40 -23 9 4 16 -4 19 -22 6 -29 84 -124 96 -116 5 2 23 -18 40 -45
39 -61 59 -72 109 -64 48 7 65 -10 66 -70 1 -42 1 -43 24 -28 18 11 25 12 37
2 12 -10 16 -9 21 3 10 28 -17 88 -58 126 -67 61 -116 114 -161 171 -24 30
-68 72 -100 93 -44 30 -66 55 -97 108 -23 38 -52 76 -65 85 -14 9 -25 25 -25
35 0 23 -61 147 -192 389 -52 96 -98 188 -102 203 -5 20 -24 39 -68 67 -61 38
-62 39 -33 46 17 4 41 2 59 -5 17 -7 44 -14 61 -15 20 -2 42 -17 74 -52 82
-91 190 -224 224 -277 19 -28 54 -69 78 -89 58 -50 61 -53 118 -121 58 -69
117 -117 143 -117 11 0 34 -14 51 -32 38 -37 86 -68 107 -68 9 0 32 -13 52
-30 55 -45 82 -53 122 -33 44 21 63 13 85 -37 16 -35 20 -39 31 -25 7 9 21 13
31 10 13 -4 19 -1 19 9 0 49 -60 104 -134 125 -21 5 -61 28 -89 49 -76 58
-147 98 -208 115 -40 12 -66 28 -99 63 -25 25 -64 55 -87 66 -26 11 -43 26
-43 35 0 10 -99 116 -220 238 -121 121 -220 226 -220 233 0 20 -41 40 -120 59
-61 14 -114 18 -277 17 -112 -1 -203 2 -203 6 0 4 8 18 18 31 10 13 26 58 35
99 10 41 21 81 26 89 11 17 106 51 143 51 18 0 40 -13 66 -39 31 -32 48 -41
88 -46 87 -11 90 -13 106 -53 16 -40 40 -52 109 -52 44 0 71 -42 63 -99 -11
-94 25 -165 55 -108 10 19 10 29 1 47 -12 23 -7 50 10 50 5 0 10 -20 10 -44 0
-25 5 -48 12 -52 17 -11 40 27 33 56 -3 15 7 3 24 -27 45 -77 90 -82 91 -10 0
21 -8 32 -30 45 -19 11 -30 25 -30 39 0 30 17 38 44 20 25 -17 41 -51 51 -109
8 -48 30 -49 52 -3 l16 34 -41 61 c-26 38 -42 72 -42 91 0 17 -6 32 -15 35
-10 4 -15 20 -15 47 0 30 -9 54 -36 92 -21 32 -38 70 -41 95 l-6 43 86 -6 c48
-4 111 -16 140 -27 29 -11 86 -24 125 -29 49 -6 89 -19 125 -39 35 -20 66 -29
92 -29 49 1 234 -84 310 -143 29 -22 61 -40 72 -40 35 0 362 -257 394 -309 10
-17 31 -37 47 -45 48 -25 131 -123 255 -303 65 -94 124 -174 132 -177 30 -11
180 -259 259 -428 24 -51 91 -176 148 -278 60 -107 124 -237 152 -310 65 -169
141 -315 176 -340 18 -13 39 -47 58 -93 34 -80 96 -288 107 -357 11 -67 21
-81 34 -47 6 16 11 43 11 62 0 59 -49 224 -101 338 -28 62 -54 128 -59 147
-12 53 -91 223 -159 340 -34 58 -61 113 -61 123 0 11 -27 63 -59 117 -108 177
-171 297 -182 349 -7 33 -28 75 -63 123 -110 153 -187 272 -192 297 -18 81
-45 113 -457 541 -29 30 -126 107 -215 170 -97 69 -156 116 -147 118 21 5 56
-19 255 -168 88 -67 165 -130 170 -141 6 -11 35 -35 63 -54 73 -47 130 -102
247 -240 57 -66 151 -167 210 -225 100 -98 218 -243 285 -350 15 -25 79 -115
140 -200 93 -127 125 -182 181 -305 81 -179 124 -256 162 -294 35 -36 80 -163
136 -390 23 -94 45 -168 49 -165 15 16 6 134 -19 238 -15 61 -49 165 -76 231
-27 66 -50 129 -52 140 -6 42 -88 214 -151 314 -36 58 -65 110 -65 117 0 7
-46 75 -103 151 -136 183 -142 192 -156 234 -8 24 -57 85 -141 174 -71 76
-137 154 -147 174 -40 80 -82 125 -227 247 -83 71 -189 166 -236 213 -65 65
-138 121 -295 226 -116 77 -213 145 -217 152 -5 6 -74 39 -155 73 -228 96
-233 98 -249 115 -10 10 -34 15 -69 15 -42 0 -68 8 -121 35 -61 32 -74 35
-150 35 -82 0 -85 1 -124 36 -41 37 -88 53 -163 54 -29 0 -49 10 -91 44 -69
56 -139 82 -246 91 -47 3 -128 13 -180 21 -214 32 -247 35 -331 24 -46 -6
-125 -13 -176 -17 l-91 -6 -13 42 c-31 105 -65 114 -414 112 -340 -1 -512 -14
-742 -55 l-183 -32 -77 78 c-77 78 -172 138 -217 138 -12 0 -30 -10 -41 -21z
m35 -179 c7 0 25 -14 42 -32 l30 -32 -103 -27 c-84 -23 -107 -26 -125 -16 -22
12 -22 13 33 90 l56 79 28 -31 c15 -17 33 -31 39 -31z m-501 -169 c11 -11 40
-23 65 -26 25 -4 46 -10 46 -14 0 -3 -29 -21 -65 -40 -94 -48 -198 -148 -235
-226 -34 -70 -38 -110 -14 -143 14 -21 13 -25 -29 -80 -136 -176 -216 -296
-207 -307 8 -9 4 -14 -12 -18 -12 -4 -24 -5 -25 -3 -4 4 225 483 337 708 63
126 87 159 118 167 1 1 11 -8 21 -18z m3377 -186 c16 -15 14 -16 -22 -10 -21
4 -50 18 -64 31 l-25 25 47 -15 c26 -7 55 -21 64 -31z m379 -85 l20 -9 -20 1
c-11 0 -33 4 -50 8 l-30 8 30 0 c17 0 39 -3 50 -8z m297 -109 c161 -76 158
-86 -4 -18 -81 34 -147 66 -148 71 0 14 44 -2 152 -53z"/>
<path d="M1060 7602 c-30 -10 -71 -27 -90 -37 -76 -39 -259 -164 -320 -219
-36 -32 -121 -99 -190 -149 -156 -113 -301 -225 -317 -245 -37 -46 15 -115
129 -171 97 -48 196 -63 384 -59 149 3 164 1 183 -17 21 -19 23 -19 56 -1 19
10 42 16 51 12 15 -6 16 -20 11 -141 -4 -75 -18 -209 -32 -298 -51 -341 -60
-458 -59 -837 1 -262 6 -394 18 -505 9 -82 19 -157 22 -166 4 -16 1 -16 -38
-2 -99 34 -215 -2 -334 -105 -100 -87 -440 -446 -475 -500 -37 -59 -39 -113
-4 -147 13 -14 33 -25 45 -25 11 0 48 -12 81 -26 59 -24 63 -25 106 -10 34 12
50 13 66 4 11 -6 47 -10 79 -9 32 1 67 -4 78 -11 16 -10 31 -8 86 10 44 15 70
19 74 12 3 -5 12 -63 19 -127 22 -204 99 -593 153 -777 60 -202 110 -291 263
-462 131 -147 324 -318 470 -415 126 -85 452 -250 665 -339 220 -91 970 -453
1141 -551 87 -49 99 -53 159 -54 51 0 77 6 122 28 64 31 165 125 174 161 11
46 -12 65 -191 151 -239 114 -373 203 -557 368 -60 53 -97 95 -118 135 -17 32
-63 98 -102 147 -127 160 -225 394 -272 645 -14 74 -32 168 -41 208 -22 105
-45 383 -45 560 0 92 -6 191 -16 250 -21 125 -16 601 7 628 10 13 24 14 66 9
29 -3 57 -3 63 0 19 12 204 13 237 2 25 -8 44 -7 85 5 29 9 71 19 94 23 22 3
53 17 69 29 61 48 32 126 -104 286 -35 41 -89 109 -119 150 -31 41 -99 118
-151 171 -77 77 -108 100 -156 120 -79 31 -168 31 -250 0 -33 -13 -79 -27
-103 -33 -24 -5 -78 -34 -120 -64 -42 -29 -117 -79 -166 -111 -48 -32 -127
-86 -175 -119 -47 -34 -118 -80 -156 -104 -83 -50 -95 -63 -95 -107 0 -41 30
-73 69 -73 37 0 80 -16 106 -40 11 -10 36 -21 55 -25 19 -4 44 -14 56 -22 12
-7 29 -11 38 -7 9 3 35 -1 58 -11 27 -10 54 -14 76 -10 22 4 41 1 56 -9 13 -8
40 -18 60 -22 30 -5 44 -2 67 15 16 12 34 19 39 16 6 -4 10 -81 10 -188 0
-100 7 -263 14 -362 27 -343 36 -481 46 -710 13 -297 34 -454 82 -605 29 -91
161 -427 193 -491 l27 -54 -72 70 c-102 99 -239 260 -301 352 -29 43 -112 157
-184 253 -142 189 -228 314 -293 426 -45 77 -177 370 -272 601 l-58 141 36 7
c20 4 51 20 70 36 23 20 43 29 68 29 52 0 94 25 96 58 4 80 4 80 -121 172 -49
36 -130 96 -179 133 l-89 68 -12 152 c-6 84 -16 262 -21 397 -6 135 -15 301
-21 370 -12 137 -7 424 11 560 6 47 22 139 35 205 14 66 34 192 45 280 12 88
24 171 28 184 10 30 52 36 102 13 23 -10 64 -15 123 -14 55 0 101 -5 122 -14
49 -20 132 -17 265 10 119 24 180 49 265 110 27 20 58 36 69 36 16 0 18 5 13
37 -8 49 -35 72 -137 118 -115 51 -205 111 -265 176 -28 29 -87 90 -132 134
-45 44 -102 107 -127 139 -58 75 -124 125 -223 167 -70 30 -89 34 -188 36 -85
2 -123 -1 -165 -15z m18 -3655 c15 4 21 -6 35 -56 46 -163 335 -767 457 -955
134 -205 354 -486 538 -685 l87 -95 -70 39 c-67 37 -292 179 -460 291 -161
106 -377 319 -453 447 -53 88 -120 246 -142 332 -33 134 -91 642 -77 679 5 11
13 13 36 6 17 -4 39 -6 49 -3z"/>
<path d="M10040 5381 c-38 -16 -66 -35 -68 -44 -2 -10 6 -100 18 -202 l21
-186 -20 -84 c-29 -122 -122 -345 -174 -418 -24 -34 -134 -154 -243 -267 -199
-205 -287 -307 -318 -367 -9 -18 -18 -33 -21 -33 -4 0 -76 32 -84 37 -3 2 12
20 32 41 l37 38 -43 134 c-42 131 -44 135 -70 133 -22 -1 -28 3 -33 25 -9 47
-34 94 -47 89 -6 -2 -32 10 -57 28 -46 33 -99 55 -132 55 -17 0 -17 -2 -2 -24
15 -24 14 -28 -21 -90 -20 -37 -42 -66 -49 -66 -40 0 -228 70 -262 98 -44 36
-104 53 -104 31 0 -11 -11 -38 -47 -107 -1 -2 -15 6 -32 19 -17 12 -54 25 -84
30 -30 4 -78 18 -108 33 -52 25 -61 24 -72 -7 -1 -5 -32 -1 -67 8 -35 9 -77
15 -93 12 -17 -2 -53 6 -86 19 -31 13 -71 24 -88 24 -29 0 -33 -3 -33 -26 0
-14 13 -44 29 -67 20 -29 31 -60 36 -99 4 -36 16 -71 31 -94 14 -20 32 -54 41
-75 10 -26 58 -79 149 -165 82 -77 134 -134 134 -145 0 -11 7 -35 14 -54 l15
-35 -100 0 c-54 0 -141 -7 -192 -15 -50 -8 -137 -15 -192 -15 -55 0 -111 -1
-125 -1 -14 -1 -53 3 -87 9 -62 10 -126 3 -146 -17 -8 -8 -6 -21 6 -46 23 -48
22 -92 -2 -105 -26 -13 -104 -13 -173 1 -45 9 -60 8 -84 -4 -22 -11 -40 -13
-74 -7 -62 12 -62 12 -55 -10 11 -35 -36 -45 -125 -27 -41 8 -83 18 -92 22
-14 5 -18 2 -18 -14 0 -24 -3 -25 -50 -11 -65 19 -181 -6 -180 -38 0 -4 23
-20 51 -37 70 -41 89 -68 89 -124 0 -55 25 -113 85 -197 l45 -62 -33 -12 c-17
-6 -72 -15 -121 -21 -51 -5 -125 -22 -175 -40 -140 -49 -165 -57 -193 -63 -33
-7 -38 -35 -8 -43 26 -7 27 -53 3 -82 -30 -34 -134 -91 -169 -91 -17 0 -46 -3
-63 -6 -26 -6 -31 -11 -31 -36 0 -25 -6 -32 -42 -48 -24 -10 -83 -29 -131 -41
-49 -12 -86 -26 -84 -32 7 -21 99 -77 126 -77 39 0 129 -28 176 -55 43 -24
120 -44 172 -44 17 0 45 -7 62 -15 54 -28 86 -20 216 54 207 118 221 123 329
115 109 -8 399 11 470 31 84 24 269 55 306 51 l35 -3 -30 -13 c-16 -7 -52 -17
-79 -22 -27 -5 -65 -19 -85 -31 -20 -13 -81 -33 -136 -45 -116 -26 -265 -81
-272 -100 -3 -7 2 -32 11 -54 9 -23 15 -44 12 -46 -14 -15 -97 -14 -126 0 -31
16 -32 16 -62 -18 l-30 -35 -106 0 c-107 1 -134 -4 -204 -34 -21 -9 -48 -16
-62 -16 -38 0 -39 -15 -5 -75 20 -35 29 -63 26 -77 -17 -62 115 -227 279 -351
34 -26 73 -52 88 -58 41 -19 19 -32 -41 -24 -76 9 -153 33 -154 48 0 7 -5 0
-11 -15 -11 -31 -21 -33 -99 -17 -30 6 -67 12 -84 14 -16 1 -45 5 -62 9 -39 9
-44 -8 -16 -55 15 -25 16 -37 6 -94 -15 -89 -23 -97 -97 -93 -52 3 -62 0 -71
-17 -13 -24 -53 -35 -83 -22 -15 7 -29 7 -45 -1 -12 -6 -37 -13 -55 -14 l-33
-3 29 -35 30 -35 -47 -27 c-25 -15 -56 -28 -68 -28 -20 0 -23 -5 -23 -41 0
-44 0 -44 -71 -23 -10 3 -18 -2 -21 -14 -3 -11 -26 -25 -61 -37 -69 -23 -101
-13 -123 42 -22 52 -6 104 41 133 31 19 38 20 62 8 19 -9 29 -22 31 -41 4 -34
22 -31 40 6 13 28 4 62 -22 79 -33 22 -122 1 -169 -40 -24 -22 -67 -113 -67
-143 0 -48 21 -99 47 -117 30 -19 220 -35 403 -34 175 1 588 69 831 137 193
55 600 215 802 317 225 113 384 134 388 50 1 -15 3 -36 4 -47 1 -11 2 -35 3
-53 2 -28 5 -33 24 -30 15 2 33 22 57 63 64 112 81 135 100 135 14 0 22 12 31
47 17 69 48 138 73 161 12 11 38 22 57 24 26 2 36 8 38 23 2 11 10 39 18 61
11 32 19 41 33 37 28 -7 40 18 67 134 48 213 101 333 184 417 l38 39 35 -22
c37 -23 108 -95 125 -128 6 -11 14 -34 16 -50 7 -38 -27 -72 -107 -108 -49
-21 -57 -28 -47 -40 13 -16 1 -23 -79 -45 -22 -6 -41 -14 -41 -19 0 -10 48
-54 84 -77 16 -10 47 -20 70 -24 l41 -5 -22 -22 c-13 -13 -23 -25 -23 -27 0
-10 103 -46 134 -46 38 0 55 17 110 110 15 25 36 57 47 71 12 14 30 59 40 99
25 93 58 134 173 220 123 90 194 169 244 271 49 101 61 149 62 251 0 129 13
164 107 305 121 180 182 259 265 344 129 132 209 225 227 265 10 22 41 68 70
102 47 56 60 92 34 92 -5 0 -7 19 -5 43 3 31 -2 49 -16 67 l-19 24 -14 -37
c-15 -44 -27 -46 -59 -12 -33 35 -60 32 -149 -20 -43 -25 -84 -45 -92 -45 -8
0 -27 29 -43 68 -33 77 -72 142 -86 142 -5 0 -28 -31 -50 -70 -33 -57 -45 -70
-66 -70 -34 0 -59 -14 -123 -69 -106 -91 -134 -111 -157 -111 -12 0 -25 4 -28
9 -11 18 90 139 259 311 244 249 298 325 398 565 84 199 100 269 116 494 11
147 5 272 -13 270 -6 -1 -40 -13 -76 -28z"/>
</g>
</svg>
